<svg viewBox="0 0 32 32" xmlns="http://www.w3.org/2000/svg">
  <!-- Background circle with brand blue -->
  <circle cx="16" cy="16" r="16" fill="#0ea5e9"/>
  
  <!-- Quill pen in white -->
  <path d="M8 24L12 20L20 12L24 8L20 12L12 20L8 24Z" fill="#ffffff" stroke="#ffffff" stroke-width="0.5"/>
  
  <!-- Quill tip shadow -->
  <path d="M8 24L10 22L12 20L8 24Z" fill="#e2e8f0" opacity="0.7"/>
  
  <!-- Stars in white -->
  <circle cx="9" cy="9" r="1.2" fill="#ffffff"/>
  <circle cx="23" cy="23" r="1.2" fill="#ffffff"/>
  <circle cx="25" cy="11" r="1" fill="#ffffff"/>
  <circle cx="7" cy="25" r="1" fill="#ffffff"/>
  
  <!-- Sparkle effects -->
  <path d="M6 6 L6.5 7.5 L8 8 L6.5 8.5 L6 10 L5.5 8.5 L4 8 L5.5 7.5 Z" fill="#ffffff" opacity="0.9"/>
  <path d="M26 6 L26.3 7 L27 7.3 L26.3 7.6 L26 8.6 L25.7 7.6 L25 7.3 L25.7 7 Z" fill="#ffffff" opacity="0.9"/>
  
  <!-- Additional small stars -->
  <circle cx="14" cy="6" r="0.8" fill="#ffffff" opacity="0.8"/>
  <circle cx="26" cy="20" r="0.8" fill="#ffffff" opacity="0.8"/>
</svg>
